<mxfile host="Electron" agent="Mozilla/5.0 (Windows NT 10.0; Win64; x64) AppleWebKit/537.36 (KHTML, like Gecko) draw.io/26.2.15 Chrome/134.0.6998.205 Electron/35.2.1 Safari/537.36" version="26.2.15">
  <diagram name="Seite-1" id="3R_mG5bNkvgxjPq460-k">
    <mxGraphModel dx="1426" dy="961" grid="1" gridSize="10" guides="1" tooltips="1" connect="1" arrows="1" fold="1" page="1" pageScale="1" pageWidth="1200" pageHeight="1600" math="0" shadow="0">
      <root>
        <mxCell id="0" />
        <mxCell id="1" parent="0" />
        <mxCell id="R9USBCBoZlJqZ4-kGRUj-26" value="election&lt;div&gt;id : 1&lt;/div&gt;" style="rounded=0;whiteSpace=wrap;html=1;strokeColor=#d79b00;align=left;verticalAlign=top;fontFamily=Helvetica;fontSize=12;fillColor=#ffe6cc;" parent="1" vertex="1">
          <mxGeometry x="10" y="10" width="510" height="640" as="geometry" />
        </mxCell>
        <mxCell id="R9USBCBoZlJqZ4-kGRUj-13" value="ballotPaper&lt;div&gt;id : 1&lt;/div&gt;&lt;div&gt;maxVotes : 10&lt;br&gt;maxVotesPerCandidate: 5&lt;/div&gt;" style="rounded=0;whiteSpace=wrap;html=1;strokeColor=#82b366;align=left;verticalAlign=top;fontFamily=Helvetica;fontSize=12;fillColor=#d5e8d4;" parent="1" vertex="1">
          <mxGeometry x="20" y="50" width="490" height="290" as="geometry" />
        </mxCell>
        <mxCell id="R9USBCBoZlJqZ4-kGRUj-3" value="ballotPaperSection&lt;div&gt;id : 1&lt;div&gt;maxVotes : 5&lt;/div&gt;&lt;/div&gt;&lt;div&gt;maxVotesPerCandidate : 3&lt;/div&gt;" style="rounded=0;whiteSpace=wrap;html=1;align=left;verticalAlign=top;fillColor=#dae8fc;strokeColor=#6c8ebf;" parent="1" vertex="1">
          <mxGeometry x="30" y="116" width="150" height="170" as="geometry" />
        </mxCell>
        <mxCell id="R9USBCBoZlJqZ4-kGRUj-1" value="candidate&lt;div&gt;id : 1&lt;/div&gt;" style="rounded=0;whiteSpace=wrap;html=1;align=left;verticalAlign=top;fillColor=#f5f5f5;fontColor=#333333;strokeColor=#666666;" parent="1" vertex="1">
          <mxGeometry x="40" y="186" width="90" height="40" as="geometry" />
        </mxCell>
        <mxCell id="R9USBCBoZlJqZ4-kGRUj-4" value="candidate&lt;div&gt;id : 2&lt;/div&gt;" style="rounded=0;whiteSpace=wrap;html=1;align=left;verticalAlign=top;fillColor=#f5f5f5;fontColor=#333333;strokeColor=#666666;" parent="1" vertex="1">
          <mxGeometry x="40" y="236" width="90" height="40" as="geometry" />
        </mxCell>
        <mxCell id="R9USBCBoZlJqZ4-kGRUj-5" value="ballotPaperSection&lt;div&gt;id : 2&lt;div&gt;maxVotes : 10&lt;/div&gt;&lt;/div&gt;&lt;div&gt;maxVotesPerCandidate : 5&lt;/div&gt;" style="rounded=0;whiteSpace=wrap;html=1;align=left;verticalAlign=top;fillColor=#dae8fc;strokeColor=#6c8ebf;" parent="1" vertex="1">
          <mxGeometry x="190" y="115" width="150" height="220" as="geometry" />
        </mxCell>
        <mxCell id="R9USBCBoZlJqZ4-kGRUj-6" value="candidate&lt;div&gt;id : 1&lt;/div&gt;" style="rounded=0;whiteSpace=wrap;html=1;align=left;verticalAlign=top;fillColor=#f5f5f5;fontColor=#333333;strokeColor=#666666;" parent="1" vertex="1">
          <mxGeometry x="200" y="186" width="90" height="40" as="geometry" />
        </mxCell>
        <mxCell id="R9USBCBoZlJqZ4-kGRUj-7" value="candidate&lt;div&gt;id : 3&lt;/div&gt;" style="rounded=0;whiteSpace=wrap;html=1;align=left;verticalAlign=top;fillColor=#f5f5f5;fontColor=#333333;strokeColor=#666666;" parent="1" vertex="1">
          <mxGeometry x="200" y="236" width="90" height="40" as="geometry" />
        </mxCell>
        <mxCell id="R9USBCBoZlJqZ4-kGRUj-8" value="candidate&lt;div&gt;id : 4&lt;/div&gt;" style="rounded=0;whiteSpace=wrap;html=1;align=left;verticalAlign=top;fillColor=#f5f5f5;fontColor=#333333;strokeColor=#666666;" parent="1" vertex="1">
          <mxGeometry x="200" y="286" width="90" height="40" as="geometry" />
        </mxCell>
        <mxCell id="R9USBCBoZlJqZ4-kGRUj-9" value="ballotPaperSection&lt;div&gt;id : 3&lt;div&gt;maxVotes : 10&lt;/div&gt;&lt;/div&gt;&lt;div&gt;maxVotesPerCandidate : 5&lt;/div&gt;" style="rounded=0;whiteSpace=wrap;html=1;align=left;verticalAlign=top;fillColor=#dae8fc;strokeColor=#6c8ebf;" parent="1" vertex="1">
          <mxGeometry x="350" y="116" width="150" height="220" as="geometry" />
        </mxCell>
        <mxCell id="R9USBCBoZlJqZ4-kGRUj-10" value="candidate&lt;div&gt;id : 10&lt;/div&gt;" style="rounded=0;whiteSpace=wrap;html=1;align=left;verticalAlign=top;fillColor=#f5f5f5;fontColor=#333333;strokeColor=#666666;" parent="1" vertex="1">
          <mxGeometry x="360" y="186" width="90" height="40" as="geometry" />
        </mxCell>
        <mxCell id="R9USBCBoZlJqZ4-kGRUj-11" value="candidate&lt;div&gt;id : 30&lt;/div&gt;" style="rounded=0;whiteSpace=wrap;html=1;align=left;verticalAlign=top;fillColor=#f5f5f5;fontColor=#333333;strokeColor=#666666;" parent="1" vertex="1">
          <mxGeometry x="360" y="236" width="90" height="40" as="geometry" />
        </mxCell>
        <mxCell id="R9USBCBoZlJqZ4-kGRUj-12" value="candidate&lt;div&gt;id : 40&lt;/div&gt;" style="rounded=0;whiteSpace=wrap;html=1;align=left;verticalAlign=top;fillColor=#f5f5f5;fontColor=#333333;strokeColor=#666666;" parent="1" vertex="1">
          <mxGeometry x="360" y="286" width="90" height="40" as="geometry" />
        </mxCell>
        <mxCell id="R9USBCBoZlJqZ4-kGRUj-14" value="ballotPaper&lt;div&gt;id : 2&lt;/div&gt;&lt;div&gt;maxVotes : 10&lt;/div&gt;&lt;div&gt;maxVotesPerCandidate: 5&lt;/div&gt;" style="rounded=0;whiteSpace=wrap;html=1;strokeColor=#82b366;align=left;verticalAlign=top;fontFamily=Helvetica;fontSize=12;fillColor=#d5e8d4;" parent="1" vertex="1">
          <mxGeometry x="20" y="350" width="170" height="290" as="geometry" />
        </mxCell>
        <mxCell id="R9USBCBoZlJqZ4-kGRUj-22" value="ballotPaperSection&lt;div&gt;id : 4&lt;div&gt;maxVotes : 10&lt;/div&gt;&lt;/div&gt;&lt;div&gt;maxVotesPerCandidate : 5&lt;/div&gt;" style="rounded=0;whiteSpace=wrap;html=1;align=left;verticalAlign=top;fillColor=#dae8fc;strokeColor=#6c8ebf;" parent="1" vertex="1">
          <mxGeometry x="30" y="416" width="150" height="220" as="geometry" />
        </mxCell>
        <mxCell id="R9USBCBoZlJqZ4-kGRUj-23" value="candidate&lt;div&gt;id : 11&lt;/div&gt;" style="rounded=0;whiteSpace=wrap;html=1;align=left;verticalAlign=top;fillColor=#f5f5f5;fontColor=#333333;strokeColor=#666666;" parent="1" vertex="1">
          <mxGeometry x="40" y="486" width="90" height="40" as="geometry" />
        </mxCell>
        <mxCell id="R9USBCBoZlJqZ4-kGRUj-24" value="candidate&lt;div&gt;id : 33&lt;/div&gt;" style="rounded=0;whiteSpace=wrap;html=1;align=left;verticalAlign=top;fillColor=#f5f5f5;fontColor=#333333;strokeColor=#666666;" parent="1" vertex="1">
          <mxGeometry x="40" y="536" width="90" height="40" as="geometry" />
        </mxCell>
        <mxCell id="R9USBCBoZlJqZ4-kGRUj-25" value="candidate&lt;div&gt;id : 44&lt;/div&gt;" style="rounded=0;whiteSpace=wrap;html=1;align=left;verticalAlign=top;fillColor=#f5f5f5;fontColor=#333333;strokeColor=#666666;" parent="1" vertex="1">
          <mxGeometry x="40" y="586" width="90" height="40" as="geometry" />
        </mxCell>
        <mxCell id="R9USBCBoZlJqZ4-kGRUj-27" value="ballotPaper&lt;div&gt;id : 3&lt;/div&gt;&lt;div&gt;maxVotes : 5&lt;/div&gt;&lt;div&gt;maxVotesPerCandidate: 5&lt;/div&gt;" style="rounded=0;whiteSpace=wrap;html=1;strokeColor=#82b366;align=left;verticalAlign=top;fontFamily=Helvetica;fontSize=12;fillColor=#d5e8d4;" parent="1" vertex="1">
          <mxGeometry x="200" y="350" width="170" height="290" as="geometry" />
        </mxCell>
        <mxCell id="R9USBCBoZlJqZ4-kGRUj-28" value="ballotPaperSection&lt;div&gt;id : 5&lt;div&gt;maxVotes : 5&lt;/div&gt;&lt;/div&gt;&lt;div&gt;maxVotesPerCandidate : 5&lt;/div&gt;" style="rounded=0;whiteSpace=wrap;html=1;align=left;verticalAlign=top;fillColor=#dae8fc;strokeColor=#6c8ebf;" parent="1" vertex="1">
          <mxGeometry x="210" y="416" width="150" height="220" as="geometry" />
        </mxCell>
        <mxCell id="R9USBCBoZlJqZ4-kGRUj-29" value="candidate&lt;div&gt;id : 11&lt;/div&gt;" style="rounded=0;whiteSpace=wrap;html=1;align=left;verticalAlign=top;fillColor=#f5f5f5;fontColor=#333333;strokeColor=#666666;" parent="1" vertex="1">
          <mxGeometry x="220" y="486" width="90" height="40" as="geometry" />
        </mxCell>
        <mxCell id="R9USBCBoZlJqZ4-kGRUj-30" value="candidate&lt;div&gt;id : 12&lt;/div&gt;" style="rounded=0;whiteSpace=wrap;html=1;align=left;verticalAlign=top;fillColor=#f5f5f5;fontColor=#333333;strokeColor=#666666;" parent="1" vertex="1">
          <mxGeometry x="220" y="536" width="90" height="40" as="geometry" />
        </mxCell>
        <mxCell id="R9USBCBoZlJqZ4-kGRUj-31" value="candidate&lt;div&gt;id : 13&lt;/div&gt;" style="rounded=0;whiteSpace=wrap;html=1;align=left;verticalAlign=top;fillColor=#f5f5f5;fontColor=#333333;strokeColor=#666666;" parent="1" vertex="1">
          <mxGeometry x="220" y="586" width="90" height="40" as="geometry" />
        </mxCell>
        <mxCell id="R9USBCBoZlJqZ4-kGRUj-32" value="election&lt;div&gt;id : 2&lt;/div&gt;" style="rounded=0;whiteSpace=wrap;html=1;strokeColor=#d79b00;align=left;verticalAlign=top;fontFamily=Helvetica;fontSize=12;fillColor=#ffe6cc;" parent="1" vertex="1">
          <mxGeometry x="530" y="10" width="370" height="340" as="geometry" />
        </mxCell>
        <mxCell id="R9USBCBoZlJqZ4-kGRUj-45" value="ballotPaper&lt;div&gt;id : 4&lt;/div&gt;&lt;div&gt;maxVotes : 10&lt;br&gt;maxVotesPerCandidate: 5&lt;/div&gt;" style="rounded=0;whiteSpace=wrap;html=1;strokeColor=#82b366;align=left;verticalAlign=top;fontFamily=Helvetica;fontSize=12;fillColor=#d5e8d4;" parent="1" vertex="1">
          <mxGeometry x="540" y="50" width="170" height="290" as="geometry" />
        </mxCell>
        <mxCell id="R9USBCBoZlJqZ4-kGRUj-46" value="ballotPaperSection&lt;div&gt;id : 6&lt;div&gt;maxVotes : 10&lt;/div&gt;&lt;/div&gt;&lt;div&gt;maxVotesPerCandidate : 5&lt;/div&gt;" style="rounded=0;whiteSpace=wrap;html=1;align=left;verticalAlign=top;fillColor=#dae8fc;strokeColor=#6c8ebf;" parent="1" vertex="1">
          <mxGeometry x="550" y="115" width="150" height="220" as="geometry" />
        </mxCell>
        <mxCell id="R9USBCBoZlJqZ4-kGRUj-47" value="candidate&lt;div&gt;id : 101&lt;/div&gt;" style="rounded=0;whiteSpace=wrap;html=1;align=left;verticalAlign=top;fillColor=#f5f5f5;fontColor=#333333;strokeColor=#666666;" parent="1" vertex="1">
          <mxGeometry x="560" y="185" width="90" height="40" as="geometry" />
        </mxCell>
        <mxCell id="R9USBCBoZlJqZ4-kGRUj-48" value="candidate&lt;div&gt;id : 102&lt;/div&gt;" style="rounded=0;whiteSpace=wrap;html=1;align=left;verticalAlign=top;fillColor=#f5f5f5;fontColor=#333333;strokeColor=#666666;" parent="1" vertex="1">
          <mxGeometry x="560" y="235" width="90" height="40" as="geometry" />
        </mxCell>
        <mxCell id="R9USBCBoZlJqZ4-kGRUj-49" value="candidate&lt;div&gt;id : 103&lt;/div&gt;" style="rounded=0;whiteSpace=wrap;html=1;align=left;verticalAlign=top;fillColor=#f5f5f5;fontColor=#333333;strokeColor=#666666;" parent="1" vertex="1">
          <mxGeometry x="560" y="285" width="90" height="40" as="geometry" />
        </mxCell>
        <mxCell id="R9USBCBoZlJqZ4-kGRUj-50" value="ballotPaper&lt;div&gt;id : 5&lt;/div&gt;&lt;div&gt;maxVotes : 10&lt;br&gt;maxVotesPerCandidate: 5&lt;/div&gt;" style="rounded=0;whiteSpace=wrap;html=1;strokeColor=#82b366;align=left;verticalAlign=top;fontFamily=Helvetica;fontSize=12;fillColor=#d5e8d4;" parent="1" vertex="1">
          <mxGeometry x="720" y="50" width="170" height="290" as="geometry" />
        </mxCell>
        <mxCell id="R9USBCBoZlJqZ4-kGRUj-51" value="ballotPaperSection&lt;div&gt;id : 7&lt;div&gt;maxVotes : 5&lt;/div&gt;&lt;/div&gt;&lt;div&gt;maxVotesPerCandidate : 5&lt;/div&gt;" style="rounded=0;whiteSpace=wrap;html=1;align=left;verticalAlign=top;fillColor=#dae8fc;strokeColor=#6c8ebf;" parent="1" vertex="1">
          <mxGeometry x="730" y="115" width="150" height="220" as="geometry" />
        </mxCell>
        <mxCell id="R9USBCBoZlJqZ4-kGRUj-52" value="candidate&lt;div&gt;id : 104&lt;/div&gt;" style="rounded=0;whiteSpace=wrap;html=1;align=left;verticalAlign=top;fillColor=#f5f5f5;fontColor=#333333;strokeColor=#666666;" parent="1" vertex="1">
          <mxGeometry x="740" y="185" width="90" height="40" as="geometry" />
        </mxCell>
        <mxCell id="R9USBCBoZlJqZ4-kGRUj-53" value="candidate&lt;div&gt;id : 105&lt;/div&gt;" style="rounded=0;whiteSpace=wrap;html=1;align=left;verticalAlign=top;fillColor=#f5f5f5;fontColor=#333333;strokeColor=#666666;" parent="1" vertex="1">
          <mxGeometry x="740" y="235" width="90" height="40" as="geometry" />
        </mxCell>
        <mxCell id="R9USBCBoZlJqZ4-kGRUj-54" value="candidate&lt;div&gt;id : 106&lt;/div&gt;" style="rounded=0;whiteSpace=wrap;html=1;align=left;verticalAlign=top;fillColor=#f5f5f5;fontColor=#333333;strokeColor=#666666;" parent="1" vertex="1">
          <mxGeometry x="740" y="285" width="90" height="40" as="geometry" />
        </mxCell>
        <mxCell id="R9USBCBoZlJqZ4-kGRUj-55" value="voter.id : 1" style="shape=umlActor;verticalLabelPosition=bottom;verticalAlign=top;html=1;outlineConnect=0;rounded=0;strokeColor=default;align=center;fontFamily=Helvetica;fontSize=12;fontColor=default;fillColor=none;" parent="1" vertex="1">
          <mxGeometry x="560" y="400" width="30" height="60" as="geometry" />
        </mxCell>
        <mxCell id="R9USBCBoZlJqZ4-kGRUj-57" style="edgeStyle=orthogonalEdgeStyle;rounded=0;orthogonalLoop=1;jettySize=auto;html=1;entryX=0.836;entryY=1.003;entryDx=0;entryDy=0;entryPerimeter=0;fontFamily=Helvetica;fontSize=12;fontColor=default;" parent="1" source="R9USBCBoZlJqZ4-kGRUj-55" target="R9USBCBoZlJqZ4-kGRUj-13" edge="1">
          <mxGeometry relative="1" as="geometry" />
        </mxCell>
        <mxCell id="R9USBCBoZlJqZ4-kGRUj-59" style="edgeStyle=orthogonalEdgeStyle;rounded=0;orthogonalLoop=1;jettySize=auto;html=1;entryX=0.5;entryY=1;entryDx=0;entryDy=0;fontFamily=Helvetica;fontSize=12;fontColor=default;" parent="1" source="R9USBCBoZlJqZ4-kGRUj-58" target="R9USBCBoZlJqZ4-kGRUj-45" edge="1">
          <mxGeometry relative="1" as="geometry" />
        </mxCell>
        <mxCell id="R9USBCBoZlJqZ4-kGRUj-60" style="edgeStyle=orthogonalEdgeStyle;rounded=0;orthogonalLoop=1;jettySize=auto;html=1;entryX=1;entryY=0.5;entryDx=0;entryDy=0;fontFamily=Helvetica;fontSize=12;fontColor=default;" parent="1" source="R9USBCBoZlJqZ4-kGRUj-58" target="R9USBCBoZlJqZ4-kGRUj-27" edge="1">
          <mxGeometry relative="1" as="geometry" />
        </mxCell>
        <mxCell id="R9USBCBoZlJqZ4-kGRUj-58" value="voter.id : 2" style="shape=umlActor;verticalLabelPosition=bottom;verticalAlign=top;html=1;outlineConnect=0;rounded=0;strokeColor=default;align=center;fontFamily=Helvetica;fontSize=12;fontColor=default;fillColor=none;" parent="1" vertex="1">
          <mxGeometry x="610" y="465" width="30" height="60" as="geometry" />
        </mxCell>
        <mxCell id="R9USBCBoZlJqZ4-kGRUj-61" style="edgeStyle=orthogonalEdgeStyle;rounded=0;orthogonalLoop=1;jettySize=auto;html=1;entryX=0.201;entryY=1;entryDx=0;entryDy=0;entryPerimeter=0;fontFamily=Helvetica;fontSize=12;fontColor=default;" parent="1" source="R9USBCBoZlJqZ4-kGRUj-55" target="R9USBCBoZlJqZ4-kGRUj-45" edge="1">
          <mxGeometry relative="1" as="geometry" />
        </mxCell>
        <mxCell id="R9USBCBoZlJqZ4-kGRUj-63" style="edgeStyle=orthogonalEdgeStyle;rounded=0;orthogonalLoop=1;jettySize=auto;html=1;entryX=0.5;entryY=1;entryDx=0;entryDy=0;fontFamily=Helvetica;fontSize=12;fontColor=default;" parent="1" source="R9USBCBoZlJqZ4-kGRUj-62" target="R9USBCBoZlJqZ4-kGRUj-50" edge="1">
          <mxGeometry relative="1" as="geometry" />
        </mxCell>
        <mxCell id="R9USBCBoZlJqZ4-kGRUj-62" value="voter.id : 3" style="shape=umlActor;verticalLabelPosition=bottom;verticalAlign=top;html=1;outlineConnect=0;rounded=0;strokeColor=default;align=center;fontFamily=Helvetica;fontSize=12;fontColor=default;fillColor=none;" parent="1" vertex="1">
          <mxGeometry x="790" y="520" width="30" height="60" as="geometry" />
        </mxCell>
        <mxCell id="R9USBCBoZlJqZ4-kGRUj-64" style="edgeStyle=orthogonalEdgeStyle;rounded=0;orthogonalLoop=1;jettySize=auto;html=1;entryX=0.996;entryY=0.687;entryDx=0;entryDy=0;entryPerimeter=0;fontFamily=Helvetica;fontSize=12;fontColor=default;" parent="1" source="R9USBCBoZlJqZ4-kGRUj-62" target="R9USBCBoZlJqZ4-kGRUj-27" edge="1">
          <mxGeometry relative="1" as="geometry" />
        </mxCell>
      </root>
    </mxGraphModel>
  </diagram>
</mxfile>
